<svg width="800" height="450" viewBox="0 0 800 450" fill="none" xmlns="http://www.w3.org/2000/svg">
  <!-- Main background -->
  <rect width="800" height="450" fill="#f0f0f0"/>
  
  <!-- Computer/Laptop mockup -->
  <rect x="150" y="100" width="500" height="300" rx="20" fill="#2c3e50"/>
  <rect x="170" y="120" width="460" height="260" rx="5" fill="#34495e"/>
  <rect x="180" y="130" width="440" height="200" rx="3" fill="#ffffff"/>
  
  <!-- Screen content (form mockup) -->
  <rect x="200" y="150" width="120" height="8" rx="4" fill="#e0e0e0"/>
  <rect x="200" y="170" width="180" height="8" rx="4" fill="#e0e0e0"/>
  <rect x="200" y="190" width="150" height="8" rx="4" fill="#e0e0e0"/>
  
  <!-- Form fields -->
  <rect x="200" y="220" width="280" height="25" rx="3" fill="#f8f9fa" stroke="#ddd"/>
  <rect x="200" y="255" width="280" height="25" rx="3" fill="#f8f9fa" stroke="#ddd"/>
  <rect x="200" y="290" width="280" height="25" rx="3" fill="#f8f9fa" stroke="#ddd"/>
  
  <!-- Submit button -->
  <rect x="200" y="330" width="100" height="30" rx="4" fill="#E27730"/>
  
  <!-- Side elements -->
  <rect x="520" y="150" width="80" height="160" rx="5" fill="#3498db"/>
  <rect x="530" y="160" width="60" height="8" rx="4" fill="#ffffff"/>
  <rect x="530" y="180" width="50" height="6" rx="3" fill="#ffffff"/>
  <rect x="530" y="195" width="45" height="6" rx="3" fill="#ffffff"/>
  
  <!-- Bottom section -->
  <rect x="180" y="340" width="440" height="30" rx="3" fill="#ecf0f1"/>
  <circle cx="400" cy="355" r="8" fill="#95a5a6"/>
  
  <!-- Decorative elements -->
  <circle cx="100" cy="80" r="30" fill="#E27730" opacity="0.1"/>
  <circle cx="720" cy="380" r="40" fill="#3498db" opacity="0.1"/>
</svg>